<?xml version="1.0" encoding="utf-8"?>
<!-- Generator: Adobe Illustrator 25.2.1, SVG Export Plug-In . SVG Version: 6.00 Build 0)  -->
<svg version="1.1" id="Layer_1" xmlns="http://www.w3.org/2000/svg" xmlns:xlink="http://www.w3.org/1999/xlink" x="0px" y="0px"
	 viewBox="0 0 1417.32 665.57" style="enable-background:new 0 0 1417.32 665.57;" xml:space="preserve">
<style type="text/css">
	.st0{fill:#B3B3B3;}
	.st1{fill:#FFFFFF;}
	.st2{opacity:0.58;fill:#D8D8D8;}
	.st3{opacity:0.58;}
</style>
<rect y="174.87" class="st0" width="1417.32" height="490.7"/>
<g>
	<path class="st1" d="M67.45,213.61h144.03c96.62,0,145.22,45.01,145.22,126.62c0,85.81-54.61,130.82-140.42,130.82h-75.01v154.23
		H67.45V213.61z M202.47,415.84c55.81,0,76.81-23.4,76.81-71.41c0-54.01-21-73.81-75.61-73.81h-62.41v145.22H202.47z"/>
	<path class="st1" d="M426.91,213.61h74.41v411.67h-74.41V213.61z"/>
	<path class="st1" d="M600.34,213.61h82.81l171.03,290.45h1.8V213.61h65.41v411.67h-73.21L667.55,315.03h-1.8v310.25h-65.41V213.61z
		"/>
	<path class="st1" d="M1018.02,213.61h135.02c126.02,0,196.83,60.61,196.83,195.03v12c0,132.02-64.21,204.64-196.23,204.64h-135.62
		V213.61z M1154.24,567.07c80.41,0,117.62-39.61,117.62-139.22v-19.8c0-103.82-45.01-136.22-123.02-136.22h-57.01v295.25H1154.24z"
		/>
</g>
<rect class="st2" width="1417.32" height="490.7"/>
<g class="st3">
	<path class="st1" d="M67.45,38.74h144.03c96.62,0,145.22,45.01,145.22,126.62c0,85.81-54.61,130.82-140.42,130.82h-75.01v154.23
		H67.45V38.74z M202.47,240.97c55.81,0,76.81-23.4,76.81-71.41c0-54.01-21-73.81-75.61-73.81h-62.41v145.22H202.47z"/>
	<path class="st1" d="M426.91,38.74h74.41v411.67h-74.41V38.74z"/>
	<path class="st1" d="M600.34,38.74h82.81l171.03,290.45h1.8V38.74h65.41v411.67h-73.21L667.55,140.15h-1.8v310.25h-65.41V38.74z"/>
	<path class="st1" d="M1018.02,38.74h135.02c126.02,0,196.83,60.61,196.83,195.03v12c0,132.02-64.21,204.64-196.23,204.64h-135.62
		V38.74z M1154.24,392.2c80.41,0,117.62-39.61,117.62-139.22v-19.8c0-103.82-45.01-136.22-123.02-136.22h-57.01V392.2H1154.24z"/>
</g>
</svg>
